<svg id="Componente_13_1" data-name="Componente 13 – 1" xmlns="http://www.w3.org/2000/svg" width="32.337" height="25.259" viewBox="0 0 32.337 25.259">
  <g id="legal-issue">
    <g id="Grupo_91" data-name="Grupo 91" transform="translate(4.196)">
      <g id="Trazado_34" data-name="Trazado 34">
        <path id="Trazado_195" data-name="Trazado 195" d="M170.479,240.124,157.732,235.8l1.436-4.229.766.26a1.231,1.231,0,0,0,.81-2.324l-.02-.007-10.715-3.637a1.232,1.232,0,0,0-.792,2.333l.767.26-3.958,11.66-.763-.258a1.231,1.231,0,1,0-.824,2.32l.032.011,10.712,3.638a1.232,1.232,0,0,0,.792-2.333l-.764-.26,1.337-3.935,12.746,4.326a1.847,1.847,0,1,0,1.242-3.479l-.055-.019Z" transform="translate(-143.62 -225.8)" fill="#0059a1"/>
      </g>
    </g>
    <g id="Grupo_92" data-name="Grupo 92" transform="translate(0 21.919)">
      <g id="Trazado_35" data-name="Trazado 35">
        <path id="Trazado_196" data-name="Trazado 196" d="M146.129,302.139H130.677a1.67,1.67,0,1,0,0,3.34H146.13a1.67,1.67,0,0,0,0-3.34Z" transform="translate(-129.007 -302.139)" fill="#de4024"/>
      </g>
    </g>
  </g>
</svg>
