<svg id="Componente_15_1" data-name="Componente 15 – 1" xmlns="http://www.w3.org/2000/svg" width="23.408" height="26.752" viewBox="0 0 23.408 26.752">
  <g id="Icon_awesome-calendar-alt" data-name="Icon awesome-calendar-alt" transform="translate(0 10.032)">
    <g id="Grupo_191" data-name="Grupo 191" transform="translate(0 0)">
      <path id="Trazado_132" data-name="Trazado 132" d="M117.115,276.024a2.509,2.509,0,0,0,2.508,2.508h18.392a2.509,2.509,0,0,0,2.508-2.508V261.812H117.115Zm16.72-10.241a.629.629,0,0,1,.628-.627h2.09a.629.629,0,0,1,.627.627v2.09a.629.629,0,0,1-.627.627h-2.09a.629.629,0,0,1-.627-.627Zm0,6.688a.629.629,0,0,1,.628-.627h2.09a.629.629,0,0,1,.627.627v2.09a.629.629,0,0,1-.628.627h-2.089a.629.629,0,0,1-.627-.627Zm-6.688-6.688a.628.628,0,0,1,.627-.627h2.09a.628.628,0,0,1,.627.627v2.09a.628.628,0,0,1-.627.627h-2.09a.628.628,0,0,1-.627-.627Zm0,6.688a.629.629,0,0,1,.627-.627h2.09a.629.629,0,0,1,.627.627v2.09a.629.629,0,0,1-.627.627h-2.09a.629.629,0,0,1-.627-.627Zm-6.688-6.688a.629.629,0,0,1,.627-.627h2.089a.629.629,0,0,1,.627.627v2.09a.629.629,0,0,1-.627.627h-2.089a.629.629,0,0,1-.627-.627Zm0,6.688a.629.629,0,0,1,.627-.627h2.089a.629.629,0,0,1,.627.627v2.09a.629.629,0,0,1-.627.627h-2.089a.629.629,0,0,1-.627-.627Z" transform="translate(-117.115 -261.812)" fill="#0059a1"/>
    </g>
  </g>
  <g id="Grupo_231" data-name="Grupo 231" transform="translate(0)">
    <path id="Trazado_152" data-name="Trazado 152" d="M138.015,231.8h-2.508V229.3a.839.839,0,0,0-.836-.836H133a.839.839,0,0,0-.836.836V231.8h-6.686V229.3a.839.839,0,0,0-.835-.836h-1.673a.839.839,0,0,0-.836.836V231.8h-2.508a2.509,2.509,0,0,0-2.508,2.508v2.508h23.408v-2.508a2.509,2.509,0,0,0-2.508-2.508Z" transform="translate(-117.115 -228.459)" fill="#de4124"/>
  </g>
</svg>
