<svg id="Componente_14_1" data-name="Componente 14 – 1" xmlns="http://www.w3.org/2000/svg" width="23.789" height="29.632" viewBox="0 0 23.789 29.632">
  <path id="Trazado_114" data-name="Trazado 114" d="M133.332,222.422H114.119a2.641,2.641,0,0,0-2.285,2.615h0v18.5a2.643,2.643,0,0,0,2.642,2.643h18.5a2.651,2.651,0,0,0,2.643-2.643v-18.5A2.65,2.65,0,0,0,133.332,222.422Zm-9.616,3.936h.012a3.959,3.959,0,1,1-.012,0Zm7.942,15.86H115.8V240.9c0-2.643,5.286-4.1,7.93-4.1s7.929,1.454,7.929,4.1Z" transform="translate(-111.835 -216.552)" fill="#0059a1"/>
  <rect id="Rectángulo_381" data-name="Rectángulo 381" width="5.168" height="3.754" rx="1.877" transform="translate(2.282)" fill="#de4124"/>
  <rect id="Rectángulo_382" data-name="Rectángulo 382" width="5.168" height="3.754" rx="1.877" transform="translate(15.204)" fill="#de4124"/>
</svg>
