<svg xmlns="http://www.w3.org/2000/svg" width="35.749" height="35.75" viewBox="0 0 35.749 35.75">
  <g id="Grupo_253" data-name="Grupo 253" transform="translate(-42 -376)">
    <g id="Grupo_252" data-name="Grupo 252" transform="translate(42 381.959)">
      <path id="Trazado_215" data-name="Trazado 215" d="M34.632,12.193a3.353,3.353,0,0,1-1.862-.581V23.364H2.979V6.979H15.64V4H2.607A2.619,2.619,0,0,0,0,6.607V26.716a2.619,2.619,0,0,0,2.607,2.607H33.143a2.619,2.619,0,0,0,2.607-2.607V12A3.149,3.149,0,0,1,34.632,12.193Z" transform="translate(0 -4)" fill="#0059a1"/>
      <path id="Trazado_216" data-name="Trazado 216" d="M19.7,24.686a6.211,6.211,0,0,1-2.017-3.946.745.745,0,0,0-.745-.74H10.949a.749.749,0,0,0-.745.749,6.067,6.067,0,0,1-1.986,3.938.744.744,0,0,0,.526,1.271H19.171a.746.746,0,0,0,.527-1.272Z" transform="translate(3.917 3.833)" fill="#0059a1"/>
      <circle id="Elipse_66" data-name="Elipse 66" cx="3" cy="3" r="3" transform="translate(12 7.814)" fill="#0059a1"/>
      <path id="Trazado_217" data-name="Trazado 217" d="M17.916,18.1v.372H6V18.1A4.094,4.094,0,0,1,10.1,14H13.82A4.094,4.094,0,0,1,17.916,18.1Z" transform="translate(2.937 1.558)" fill="#0059a1"/>
    </g>
    <path id="Trazado_218" data-name="Trazado 218" d="M28.757,11.917a1.119,1.119,0,0,1-.67-.223L25.382,9.664A2.61,2.61,0,0,1,22.8,11.917H14.607A2.61,2.61,0,0,1,12,9.31V2.234C12,1.2,12.682,0,14.607,0H22.8a2.609,2.609,0,0,1,2.6,2.459l2.641-2.2a1.117,1.117,0,0,1,1.832.858V10.8a1.117,1.117,0,0,1-1.117,1.117Z" transform="translate(47.875 376)" fill="#de4124"/>
  </g>
</svg>
