<svg id="Componente_12_1" data-name="Componente 12 – 1" xmlns="http://www.w3.org/2000/svg" width="18.163" height="23.898" viewBox="0 0 18.163 23.898">
  <g id="Icon_ionic-ios-document" data-name="Icon ionic-ios-document">
    <g id="Trazado_27" data-name="Trazado 27" transform="translate(11.292 0.006)">
      <path id="Trazado_171" data-name="Trazado 171" d="M138.223,231.08h5.437a.3.3,0,0,0,.3-.293v-.005h0a1.769,1.769,0,0,0-.639-1.369l-4.559-3.8a1.918,1.918,0,0,0-1.231-.442h0a.441.441,0,0,0-.442.44v4.334a1.135,1.135,0,0,0,1.134,1.135Z" transform="translate(-137.088 -225.171)" fill="#de4024"/>
    </g>
    <g id="Trazado_28" data-name="Trazado 28">
      <path id="Trazado_172" data-name="Trazado 172" d="M109.927,229.931v-4.78H102.1a1.918,1.918,0,0,0-1.912,1.912v20.075a1.918,1.918,0,0,0,1.912,1.912h14.339a1.918,1.918,0,0,0,1.912-1.912V232.619h-5.736A2.692,2.692,0,0,1,109.927,229.931Z" transform="translate(-100.188 -225.151)" fill="#0059a1"/>
    </g>
  </g>
</svg>
