<svg id="Componente_17_1" data-name="Componente 17 – 1" xmlns="http://www.w3.org/2000/svg" width="26.861" height="22" viewBox="0 0 26.861 22">
  <g id="Icon_awesome-store" data-name="Icon awesome-store" transform="translate(2.25 12.021)">
    <path id="Trazado_153" data-name="Trazado 153" d="M151.97,269.208a5.721,5.721,0,0,1-1.284-.165v4.347H133.922v-4.347a5.721,5.721,0,0,1-1.284.165,6.391,6.391,0,0,1-.79-.066,5.742,5.742,0,0,1-.725-.165v8.6a1.392,1.392,0,0,0,1.383,1.383h19.563a1.392,1.392,0,0,0,1.383-1.383h0V269.01a4.677,4.677,0,0,1-.725.165C152.5,269.175,152.234,269.208,151.97,269.208Z" transform="translate(-131.123 -268.977)" fill="#0059a1"/>
  </g>
  <g id="Grupo_198" data-name="Grupo 198">
    <path id="Trazado_170" data-name="Trazado 170" d="M147.96,223.8l-2.832-4.512a1.426,1.426,0,0,0-1.186-.659H126.322a1.427,1.427,0,0,0-1.186.659L122.3,223.8a3.9,3.9,0,0,0,2.569,5.961,3.578,3.578,0,0,0,.593.033,4.347,4.347,0,0,0,3.228-1.449,4.321,4.321,0,0,0,6.093.362,3.727,3.727,0,0,0,.362-.362,4.321,4.321,0,0,0,6.093.362,3.729,3.729,0,0,0,.362-.362,4.3,4.3,0,0,0,3.228,1.449,3.578,3.578,0,0,0,.593-.033A3.9,3.9,0,0,0,147.96,223.8Z" transform="translate(-121.702 -218.626)" fill="#de4124"/>
  </g>
</svg>
