<svg id="Componente_16_1" data-name="Componente 16 – 1" xmlns="http://www.w3.org/2000/svg" width="21.766" height="28.5" viewBox="0 0 21.766 28.5">
  <g id="Icon_awesome-clipboard-check" data-name="Icon awesome-clipboard-check">
    <path id="Trazado_115" data-name="Trazado 115" d="M153.9,217.274H150.06a3.07,3.07,0,1,0-6.141,0h-3.838a2.3,2.3,0,0,0-2.3,2.3v16.887a2.3,2.3,0,0,0,2.3,2.3H153.9a2.3,2.3,0,0,0,2.3-2.3V219.577A2.3,2.3,0,0,0,153.9,217.274Zm-6.907-1.151a1.151,1.151,0,1,1-1.151,1.151h0a1.149,1.149,0,0,1,1.146-1.151h.005Zm5.814,11.121-6.861,6.8a.576.576,0,0,1-.815,0h0l-3.963-4a.576.576,0,0,1,0-.815h0l1.363-1.353a.576.576,0,0,1,.815,0h0l2.207,2.226,5.086-5.046a.576.576,0,0,1,.815,0h0l1.353,1.362a.576.576,0,0,1,0,.815Z" transform="translate(-137.778 -214.203)" fill="#0059a1"/>
  </g>
  <path id="Trazado_131" data-name="Trazado 131" d="M167,241.66h-.025V257.6a2.647,2.647,0,0,1-2.639,2.639H150.88v.612a2.3,2.3,0,0,0,2.3,2.3H167a2.3,2.3,0,0,0,2.3-2.3V243.963A2.3,2.3,0,0,0,167,241.66Z" transform="translate(-147.537 -234.653)" fill="#de4124"/>
</svg>
